<svg xmlns="http://www.w3.org/2000/svg" viewBox="0 0 100 100">
  <defs>
    <radialGradient id="starburst" cx="50%" cy="50%" r="50%" fx="50%" fy="50%">
      <stop offset="0%" style="stop-color:#6B46C1;stop-opacity:1" />
      <stop offset="70%" style="stop-color:#6B46C1;stop-opacity:1" />
      <stop offset="100%" style="stop-color:#4A2B8C;stop-opacity:1" />
    </radialGradient>
  </defs>
  
  <rect width="100" height="100" rx="20" fill="url(#starburst)" />
  
  <g transform="translate(50 50)">
    <path d="M0,-40 L5,-5 L40,0 L5,5 L0,40 L-5,5 L-40,0 L-5,-5 Z" fill="#5B3AA6" />
  </g>
  
  <circle cx="50" cy="50" r="35" fill="#FFFFFF" />
  <path d="M35 40 Q50 25 65 40 Q80 55 65 70 Q50 85 35 70 Q20 55 35 40 Z" fill="#6B46C1" />
  
  <!-- Eye of Ra -->
  <g transform="translate(50, 50) scale(0.6)">
    <path d="M-30 0 Q0 -30 30 0 Q0 30 -30 0 Z" fill="#FFFFFF" stroke="#6B46C1" stroke-width="3" />
    <circle cx="0" cy="0" r="10" fill="#6B46C1" />
    <path d="M-30 0 Q-20 -10 0 -10 Q20 -10 30 0" fill="none" stroke="#6B46C1" stroke-width="3" />
    <path d="M-20 10 L-25 20 M0 15 L0 25 M20 10 L25 20" stroke="#6B46C1" stroke-width="3" />
  </g>
  
  <!-- Splat overlay (without drips) -->
  <path d="M50 5 
           C60 15, 80 10, 90 25 
           C95 35, 95 50, 90 65 
           C85 80, 70 90, 50 95 
           C30 90, 15 80, 10 65 
           C5 50, 5 35, 10 25 
           C20 10, 40 15, 50 5 Z" 
        fill="#8A6BE3" fill-opacity="0.3" />
</svg>
